<svg version="1.0" xmlns="http://www.w3.org/2000/svg" width="512" height="512" viewBox="0 0 512 512">
  <g fill="#0a0d14">
    <path d="M256 64c-106 0-192 86-192 192s86 192 192 192 192-86 192-192S362 64 256 64zm0 352c-88.4 0-160-71.6-160-160S167.6 96 256 96s160 71.6 160 160-71.6 160-160 160z"/>
    <ellipse cx="256" cy="240" rx="80" ry="70"/>
    <ellipse cx="220" cy="220" rx="15" ry="20" fill="#fff"/>
    <ellipse cx="292" cy="220" rx="15" ry="20" fill="#fff"/>
    <path d="M256 260c-20 0-30 10-30 20s10 15 30 15 30-5 30-15-10-20-30-20z"/>
    <path d="M180 140c-20-30-50-40-50-40s10 40 30 60c15 15 35 25 35 25s5-20-15-45z"/>
    <path d="M332 140c20-30 50-40 50-40s-10 40-30 60c-15 15-35 25-35 25s-5-20 15-45z"/>
    <path d="M200 290s-10 30 0 50c8 16 25 30 56 30s48-14 56-30c10-20 0-50 0-50-20 10-40 15-56 15s-36-5-56-15z"/>
  </g>
</svg>